<svg xmlns="http://www.w3.org/2000/svg" viewBox="0 0 64 64"><path stroke-linejoin="round" stroke-linecap="round" stroke-miterlimit="4" stroke-width="6" d="M58.667 16.533c0-2.987 0-4.48-0.582-5.621-0.511-1.004-1.327-1.819-2.33-2.331-1.141-0.581-2.634-0.581-5.622-0.581h-1.066c-5.974 0-8.961 0-11.243 1.163-2.007 1.023-3.639 2.654-4.662 4.662-1.163 2.282-1.163 5.269-1.163 11.243v30.933l0.267-0.4c1.852-2.778 2.779-4.168 4.002-5.174 1.083-0.89 2.332-1.558 3.673-1.966 1.516-0.46 3.185-0.46 6.525-0.46h3.666c2.987 0 4.48 0 5.622-0.581 1.003-0.512 1.819-1.327 2.33-2.331 0.582-1.141 0.582-2.634 0.582-5.621v-22.933z"></path><path stroke-linejoin="round" stroke-linecap="round" stroke-miterlimit="4" stroke-width="6" d="M5.333 16.533c0-2.987 0-4.48 0.581-5.621 0.511-1.004 1.327-1.819 2.331-2.331 1.141-0.581 2.634-0.581 5.621-0.581h1.067c5.974 0 8.961 0 11.243 1.163 2.007 1.023 3.639 2.654 4.662 4.662 1.163 2.282 1.163 5.269 1.163 11.243v30.933l-0.267-0.4c-1.852-2.778-2.779-4.168-4.002-5.174-1.083-0.89-2.332-1.558-3.673-1.966-1.516-0.46-3.185-0.46-6.525-0.46h-3.666c-2.987 0-4.48 0-5.621-0.581-1.003-0.512-1.819-1.327-2.331-2.331-0.581-1.141-0.581-2.634-0.581-5.621v-22.933z"></path></svg>