<svg xmlns="http://www.w3.org/2000/svg" viewBox="0 0 64 64"><path stroke-linejoin="round" stroke-linecap="round" stroke-miterlimit="4" stroke-width="4.9231" d="M55.573 12.293c-1.362-1.363-2.979-2.444-4.759-3.181s-3.688-1.117-5.614-1.117-3.835 0.38-5.614 1.117c-1.78 0.738-3.397 1.818-4.759 3.181l-2.827 2.827-2.827-2.827c-2.751-2.751-6.482-4.297-10.373-4.297s-7.622 1.546-10.373 4.297c-2.751 2.751-4.297 6.483-4.297 10.373s1.546 7.622 4.297 10.373l23.573 23.573 23.573-23.573c1.363-1.362 2.444-2.979 3.181-4.759s1.117-3.688 1.117-5.614-0.38-3.834-1.117-5.614c-0.738-1.78-1.819-3.397-3.181-4.759z"></path></svg>