<svg xmlns="http://www.w3.org/2000/svg" viewBox="0 0 64 64"><path fill="#c2d5d8" style="fill: var(--color1, #c2d5d8)" d="M64 32c0 17.673-14.327 32-32 32s-32-14.327-32-32c0-17.673 14.327-32 32-32s32 14.327 32 32z"></path><path fill="#e6b58a" style="fill: var(--color2, #e6b58a)" d="M30 20.062c-5.14 0-3 12.938-9 11.438-8.261-2.065-12 0.292-12 5.5 0 9.355 9.402 16.938 21 16.938s21-7.584 21-16.938-9.403-16.938-21-16.938zM16 39c-1.381 0-2.5-1.119-2.5-2.5s1.119-2.5 2.5-2.5 2.5 1.119 2.5 2.5-1.119 2.5-2.5 2.5z"></path><path fill="#d9ab82" style="fill: var(--color3, #d9ab82)" d="M19 31.5c0.718 0.179 1.316 0.148 1.826-0.039-2.364-0.577-4.348-0.783-5.979-0.664 1.231 0.087 2.614 0.317 4.153 0.703z"></path><path fill="#d9ab82" style="fill: var(--color3, #d9ab82)" d="M30 20.062c-0.177 0-0.343 0.018-0.503 0.048 10.898 0.62 19.503 7.942 19.503 16.89 0 9.084-8.866 16.496-20 16.918 0.331 0.013 0.665 0.020 1 0.020 11.597 0 21-7.584 21-16.938s-9.403-16.938-21-16.938z"></path><path fill="#e16b5a" style="fill: var(--color4, #e16b5a)" d="M26.5 47.5c0 1.657-1.343 3-3 3s-3-1.343-3-3c0-1.657 1.343-3 3-3s3 1.343 3 3z"></path><path fill="#f2cf61" style="fill: var(--color5, #f2cf61)" d="M35.5 48.5c0 1.657-1.343 3-3 3s-3-1.343-3-3c0-1.657 1.343-3 3-3s3 1.343 3 3z"></path><path fill="#4ab8a1" style="fill: var(--color6, #4ab8a1)" d="M44 44.5c0 1.657-1.343 3-3 3s-3-1.343-3-3c0-1.657 1.343-3 3-3s3 1.343 3 3z"></path><path fill="#2995cc" style="fill: var(--color7, #2995cc)" d="M48 35.5c0 1.657-1.343 3-3 3s-3-1.343-3-3c0-1.657 1.343-3 3-3s3 1.343 3 3z"></path><path fill="#263740" style="fill: var(--color8, #263740)" d="M33.767 29.92c2.289-0.398 4.535-2.055 6.614-4.133 4.754-4.753 8.289-12.377 7.853-12.813-0.434-0.434-7.913 2.953-12.813 7.853-2.066 2.067-3.733 4.372-4.133 6.614l2.48 2.479z"></path><path fill="#1e2c33" style="fill: var(--color9, #1e2c33)" d="M48.233 12.973c-0.115-0.116-0.739 0.043-1.677 0.429-1.083 2.599-3.919 7.647-7.416 11.144-2.078 2.078-4.323 3.736-6.614 4.134l1.24 1.239c2.289-0.398 4.535-2.055 6.614-4.133 4.754-4.753 8.289-12.377 7.853-12.813z"></path><path fill="#e6e6e6" style="fill: var(--color10, #e6e6e6)" d="M33.125 23.491c-0.931 1.297-1.605 2.634-1.838 3.948l2.48 2.479c1.342-0.233 2.669-0.901 3.955-1.831l-4.596-4.596z"></path><path fill="#ccc" style="fill: var(--color11, #ccc)" d="M36.482 26.849c-1.286 0.93-2.614 1.598-3.956 1.831l1.24 1.239c1.342-0.233 2.669-0.901 3.955-1.831l-1.239-1.24z"></path><path fill="#406a80" style="fill: var(--color12, #406a80)" d="M33.767 29.92l-2.48-2.48c-5.581 0.206-3.1 5.993-6.201 7.853 2.14 0 5.787-0.001 7.233-1.447s1.565-2.951 1.447-3.927z"></path><path fill="#2995cc" style="fill: var(--color7, #2995cc)" d="M33.559 29.713l-1.861-1.86c-4.108 0.152-2.057 4.624-4.34 5.993 1.576 0 4.101 0.032 5.167-1.033 1.066-1.066 1.12-2.381 1.034-3.1z"></path></svg>