<svg xmlns="http://www.w3.org/2000/svg" viewBox="0 0 64 64"><path stroke-linejoin="miter" stroke-linecap="butt" stroke-miterlimit="4" stroke-width="4.8" d="M24.801 18.788l7.199-13.645 7.199 13.645c0.637 1.207 1.797 2.050 3.141 2.282l15.202 2.63-10.752 11.063c-0.951 0.978-1.394 2.343-1.2 3.693l2.196 15.27-13.845-6.807c-1.224-0.602-2.659-0.602-3.883 0l-13.845 6.807 2.196-15.27c0.194-1.35-0.249-2.715-1.2-3.693l-10.752-11.063 15.202-2.63c1.344-0.233 2.505-1.076 3.141-2.282zM58.071 23.157v0zM15.534 54.062c0 0 0 0 0.001 0h-0.001z"></path></svg>